# xmcd
#
# Track frame offsets:
#	150
#	24689
#	45934
#	73156
#	92369
#	111438
#	133754
#	153944
#	179634
#	200912
#	223477
#	246460
#	271439
#	296151
#	336729
#
# Disc length: 4773 seconds
#
# Revision: 2
# Processed by: cddbd v1.5.2PL0 Copyright (c) Steve Scherf et al.
# Submitted via: EZCDAudioConverter 8.0.2.1
#
DISCID=0012a30f
DTITLE=Various Artist - Sài Gòn
DYEAR=2008
DGENRE=
TTITLE0=Hợp ca - Vào miền Nam
TTITLE1=Tâm Đoan - Tự tình quê hương
TTITLE2=Quang Lê - Nắng đẹp Miền Nam
TTITLE3=Quang Lê,. Ngọc Hạ - Tình lúa duyên trăng
TTITLE4=Hương Thủy - Em về miệt thứ
TTITLE5=Quỳnh Vi, Nguyệt Anh - Giòng An Giang
TTITLE6=Bảo Hân, Hồ Lệ Thu, Thùy Vân - Đêm Đô Thị - Sàigòn
TTITLE7=Dương Triệu Vũ, Ngọc Liên - Bước chân chiều chủ nhật,  Đêm lang thang
TTITLE8=Minh Tuyết - Sài Gòn chiều bơ vơ
TTITLE9=Trịnh Lam - Sài Gòn niềm thương nỗi nhớ
TTITLE10=Trần Thái Hòa - Đêm nhớ trăng Sài Gòn 
TTITLE11=Như Quỳnh, Bảo Hân, Loan Châu, Minh Tuyết - Sài Gòn , Ghé bến Sài Gòn
TTITLE11=
TTITLE12=Như Quỳnh - Còn thươn rau đắng mọc sau hè
TTITLE13=Minh Vương, Hương Lan - Tân cổ Tiếng hò Miền Nam
TTITLE14=Hồ Lệ Thu, Thanh Trúc, Như Loan - Tôi yêu
EXTD=
EXTT0=
EXTT1=
EXTT2=
EXTT3=
EXTT4=
EXTT5=
EXTT6=
EXTT7=
EXTT8=
EXTT9=
EXTT10=
EXTT11=
EXTT12=
EXTT13=
EXTT14=
PLAYORDER=
